<svg width="456" height="109" viewBox="0 0 456 109" fill="none" xmlns="http://www.w3.org/2000/svg">
<path d="M83.68 31.46C75.3 24.31 65.95 20.73 55.66 20.73C45.37 20.73 37.91 23.85 31.81 30.09C25.7 36.33 22.65 44.49 22.65 54.56C22.65 64.63 25.63 72.26 31.6 78.55C37.52 84.75 45 87.84 54.02 87.84C62.09 87.84 69.6 85.68 76.58 81.35C78.77 79.98 80.76 78.55 82.56 77.04C84.36 75.54 86.24 73.94 88.2 72.25V97.68L87.04 98.5C82.35 101.83 77.45 104.22 72.34 105.68C66.87 107.27 61.24 108.07 55.46 108.07C51.77 108.07 47.99 107.75 44.11 107.11C29.12 104.56 17.57 97.15 9.46 84.9C3.48 75.98 0.5 65.82 0.5 54.43C0.5 43.04 3.51 32.95 9.52 24.01C15.63 14.9 23.72 8.38 33.79 4.46C40.44 1.82 47.32 0.5 54.43 0.5C57.48 0.5 60.6 0.75 63.79 1.25C72.27 2.57 80.33 5.85 87.99 11.09L89.29 11.98L88.06 35.15L83.69 31.46H83.68Z" fill="#F7F8F8"/>
<path d="M121.62 42.06C125.17 38.46 129.57 36.46 134.81 36.05C135.4 36.01 135.99 35.98 136.59 35.98C141.1 35.98 145.52 37.21 149.85 39.67L142.19 57.1C140.37 55.78 138.85 54.77 137.65 54.06C136.44 53.35 134.63 53 132.22 53C128.53 53 125.93 54.41 124.43 57.24C123.24 59.43 122.48 62.26 122.14 65.75C121.8 69.24 121.63 72.37 121.63 75.15V105.57H101.6V36.93H121.63V42.06H121.62Z" fill="#F7F8F8"/>
<path d="M182.18 75.28C182.18 78.06 182.45 80.43 183 82.39C183.46 84.08 184.18 85.44 185.19 86.49C186.06 87.49 187.31 88.22 188.95 88.68C190.59 89.27 192.73 89.57 195.37 89.57C198.01 89.57 200.11 89.27 201.79 88.68C203.38 88.22 204.64 87.5 205.55 86.49C206.51 85.44 207.23 84.07 207.74 82.39C208.29 80.43 208.56 78.06 208.56 75.28V37.07H228.59V70.97C228.59 77.3 227.95 82.75 226.68 87.3C225.36 92.13 223.35 96.03 220.67 98.99C217.98 102.09 214.47 104.39 210.14 105.89C205.9 107.35 201.03 108.08 195.51 108.08C189.99 108.08 184.96 107.35 180.68 105.89C176.31 104.48 172.77 102.22 170.09 99.12C167.4 96.2 165.4 92.29 164.08 87.36C162.8 82.8 162.17 77.34 162.17 70.96V37.06H182.2V75.27L182.18 75.28Z" fill="#F7F8F8"/>
<path d="M297.07 105.55H234.73L269.73 55.31H240.82L245.13 37.06H303.91L269.67 87.3H301.38L297.07 105.55Z" fill="#F7F8F8"/>
<path d="M360.78 56.89C359.64 56.07 358.46 55.39 357.23 54.84C356 54.29 354.65 53.86 353.2 53.54C351.83 53.27 350.37 53.13 348.82 53.13C346.27 53.13 343.97 53.54 341.92 54.36C339.96 55.14 338.23 56.32 336.73 57.91H336.8C335.2 59.64 334.07 61.53 333.38 63.58C332.6 65.86 332.22 68.36 332.22 71.1C332.22 74.02 332.61 76.64 333.38 78.96C334.06 81.1 335.2 82.97 336.8 84.56C338.21 86.11 339.97 87.29 342.06 88.11C344.2 88.89 346.68 89.27 349.51 89.27C351.06 89.27 352.52 89.13 353.89 88.86C355.26 88.59 356.51 88.15 357.65 87.56C357.97 87.24 358.48 86.92 359.19 86.6C359.9 86.28 360.48 85.92 360.93 85.51C362.52 84.19 363.94 82.92 365.17 81.72C366.4 80.51 367.63 79.04 368.86 77.31V102.39L367.42 103.21C365.78 104.17 364.3 104.87 362.98 105.33C361.52 105.88 359.93 106.38 358.2 106.83C356.7 107.19 355.03 107.49 353.21 107.72C351.3 107.95 349.54 108.06 347.95 108.06C342.76 108.06 337.93 107.22 333.46 105.53C329.09 103.94 325.21 101.38 321.84 97.87C318.47 94.54 315.92 90.6 314.18 86.05C312.49 81.77 311.65 76.91 311.65 71.49C311.65 66.07 312.52 61.24 314.25 56.73C315.98 52.4 318.62 48.48 322.18 44.97C325.64 41.55 329.68 39.02 334.28 37.38C338.7 35.69 343.74 34.85 349.39 34.85C351.26 34.85 352.92 34.94 354.38 35.12C356.48 35.39 358.03 35.64 359.03 35.87C360.49 36.24 361.95 36.69 363.4 37.24C364.63 37.74 365.97 38.36 367.43 39.09L368.87 39.91V64.31C367.64 62.62 366.42 61.27 365.21 60.24C364 59.21 362.53 58.09 360.8 56.86L360.78 56.89Z" fill="#F7F8F8"/>
<path d="M381.14 71.38C381.14 69.06 381.39 66.64 381.89 64.13C382.39 61.58 383.1 59.3 384.01 57.29C384.92 55.1 386.06 53.01 387.43 51C388.75 49.04 390.32 47.17 392.15 45.4C393.79 43.85 395.68 42.35 397.82 40.89C399.96 39.57 402.08 38.47 404.18 37.61C406.14 36.79 408.46 36.11 411.15 35.56C413.79 35.1 416.23 34.88 418.46 34.88C423.52 34.88 428.33 35.79 432.88 37.61C434.88 38.43 437.03 39.55 439.3 40.96C441.49 42.42 443.4 43.97 445.04 45.61C446.82 47.39 448.39 49.26 449.76 51.21C451.13 53.17 452.27 55.27 453.18 57.5C454.04 59.51 454.75 61.76 455.3 64.27C455.76 66.5 455.98 68.87 455.98 71.38C455.98 73.89 455.77 76.3 455.36 78.63C454.9 80.73 454.2 83.03 453.24 85.53C452.15 87.99 451.01 90.09 449.82 91.82C448.36 93.83 446.79 95.65 445.1 97.29C443.09 99.25 441.14 100.8 439.22 101.94C437.12 103.35 434.98 104.49 432.8 105.36H432.73C430.45 106.23 428.13 106.91 425.76 107.41C423.07 107.87 420.63 108.09 418.45 108.09C416.27 108.09 413.85 107.86 411.2 107.41C409.24 107 406.94 106.32 404.3 105.36H404.23C401.81 104.4 399.67 103.29 397.81 102.01C395.58 100.51 393.69 98.96 392.14 97.36C390.27 95.54 388.7 93.67 387.42 91.76C386.01 89.76 384.87 87.66 384 85.47C383.04 83.42 382.31 81.14 381.81 78.64C381.35 76 381.13 73.58 381.13 71.39L381.14 71.38ZM435.21 71.52C435.21 66.42 433.57 62.11 430.29 58.6C428.69 56.92 426.92 55.62 424.96 54.7C422.91 53.83 420.79 53.4 418.6 53.4C416.41 53.4 414.25 53.83 412.24 54.7C410.33 55.61 408.55 56.91 406.91 58.6C405.22 60.42 403.99 62.36 403.22 64.41C402.4 66.6 401.99 68.97 401.99 71.52C401.99 74.07 402.4 76.46 403.22 78.56C404.04 80.79 405.27 82.73 406.91 84.37C408.55 86.15 410.33 87.45 412.24 88.27C414.06 89.14 416.18 89.57 418.6 89.57C421.02 89.57 423.09 89.14 424.96 88.27C426.87 87.45 428.65 86.15 430.29 84.37C431.93 82.68 433.14 80.75 433.91 78.56C434.78 76.51 435.21 74.16 435.21 71.52Z" fill="#F7F8F8"/>
</svg>
